<svg xmlns="http://www.w3.org/2000/svg" width="279.943" height="330.468" viewBox="0 0 279.943 330.468">
  <g id="Group_313" data-name="Group 313" transform="translate(0.16 -1194.151)">
    <rect id="Rectangle_329" data-name="Rectangle 329" width="40.689" height="125.73" rx="20.345" transform="translate(-0.161 1301.641)" fill="#404040"/>
    <path id="Path_18" data-name="Path 18" d="M302.128,1468.321V1601a20.312,20.312,0,0,1-20.312,20.312H265.507v45.572a20.345,20.345,0,1,1-40.689,0v-45.572H197.149v45.572a20.345,20.345,0,1,1-40.689,0v-45.572H140.151A20.312,20.312,0,0,1,119.839,1601v-132.68Z" transform="translate(-71.173 -162.612)" fill="#404040"/>
    <path id="Path_19" data-name="Path 19" d="M277.934,1238.759a82.735,82.735,0,0,0-20.849-15.177l13.326-24.308a3.459,3.459,0,1,0-6.067-3.324l-13.558,24.735a82.306,82.306,0,0,0-31.258-6.12h-17.09a82.346,82.346,0,0,0-31.64,6.278l-13.122-23.937a3.459,3.459,0,1,0-6.067,3.324l12.9,23.539a82.592,82.592,0,0,0-44.673,73.4H302.128A82.333,82.333,0,0,0,277.934,1238.759Zm-108.861,26.668a8.138,8.138,0,1,1,8.138-8.138A8.136,8.136,0,0,1,169.073,1265.427Zm84.634,0a8.138,8.138,0,1,1,8.138-8.138A8.136,8.136,0,0,1,253.707,1265.427Z" transform="translate(-71.173)" fill="#404040"/>
    <rect id="Rectangle_330" data-name="Rectangle 330" width="40.689" height="125.73" rx="20.345" transform="translate(239.093 1301.641)" fill="#404040"/>
  </g>
</svg>
