<svg id="apple-seeklogo.com" xmlns="http://www.w3.org/2000/svg" width="256" height="314.4" viewBox="0 0 256 314.4">
  <path id="Path_13" data-name="Path 13" d="M213.8,167.031c.442,47.579,41.739,63.412,42.2,63.614a172.052,172.052,0,0,1-21.757,44.717c-13.1,19.153-26.7,38.235-48.129,38.63-21.052.388-27.821-12.484-51.889-12.484s-31.582,12.088-51.51,12.872c-20.68.783-36.428-20.711-49.641-39.793-27-39.034-47.632-110.3-19.927-158.406C26.91,92.291,51.506,77.163,78.2,76.775c20.307-.387,39.475,13.662,51.889,13.662s35.7-16.9,60.186-14.414c10.251.427,39.026,4.141,57.5,31.187-1.489.923-34.334,20.044-33.977,59.822M174.239,50.2c10.979-13.29,18.369-31.791,16.353-50.2-15.826.636-34.962,10.546-46.314,23.828C134.105,35.591,125.2,54.417,127.6,72.461c17.64,1.365,35.66-8.964,46.639-22.262" fill="#404040"/>
</svg>
