<svg xmlns="http://www.w3.org/2000/svg" width="337.48" height="322" viewBox="0 0 337.48 322">
  <g id="Lag_2" data-name="Lag 2" transform="translate(-0.016 0.001)">
    <g id="Lag_1" data-name="Lag 1" transform="translate(0.015 -0.001)">
      <path id="Path_10" data-name="Path 10" d="M177.991,5.761,222.135,95.2a10.333,10.333,0,0,0,7.774,5.651l98.742,14.359a10.32,10.32,0,0,1,5.724,17.609l-71.431,69.624a10.272,10.272,0,0,0-2.971,9.132l16.857,98.317a10.321,10.321,0,0,1-14.977,10.915L173.565,274.4a10.272,10.272,0,0,0-9.6,0L75.636,320.759a10.321,10.321,0,0,1-14.977-10.915l16.869-98.317a10.345,10.345,0,0,0-2.971-9.132L3.126,132.808a10.32,10.32,0,0,1,5.724-17.6l98.705-14.359a10.308,10.308,0,0,0,7.774-5.651l44.144-89.44a10.32,10.32,0,0,1,18.519,0Z" transform="translate(-0.015 0.001)" fill="#fb0"/>
    </g>
  </g>
</svg>
